# xmcd
#
# Track frame offsets:
#	150
#	14796
#	33294
#	48745
#	66693
#	85628
#	100812
#	116608
#	137066
#	151817
#	166925
#	192732
#
# Disc length: 2772 seconds
#
# Revision: 0
# Processed by: cddbd v1.5.2PL0 Copyright (c) Steve Scherf et al.
# Submitted via: audiograbber 1.83.01
#
DISCID=a70ad20c
DTITLE=Various Artist - Street Beats V05 S06 Cd1
DYEAR=1900
DGENRE=R&B
TTITLE0=Blackstreet Ft Mystikal - Wizzy Wow
TTITLE1=Floetry - Floetic
TTITLE2=Jay-Z Ft Beyonce - Bonnie and Clyde
TTITLE3=Joe Ft Jadakiss - I Want A Girl Like You
TTITLE4=Peven Everett - Testin' Me
TTITLE5=Nas - Made You Look
TTITLE6=Syleena Johnson - Faithful To You
TTITLE7=Pastor Troy - Are We Cuttin' (Remix Ft N.O.R.E. and Ms Jade)
TTITLE8=Big Brovaz - OK
TTITLE9=Sean Paul Ft Busta Rhymes - Gimme The Light (Dro-Voisier Remix)
TTITLE10=Andreus - Hey Young World (VRS Remix)
TTITLE11=Wayne Wonder - No Letting Go
EXTD=
EXTT0=
EXTT1=
EXTT2=
EXTT3=
EXTT4=
EXTT5=
EXTT6=
EXTT7=
EXTT8=
EXTT9=
EXTT10=
EXTT11=
PLAYORDER=
